<svg width="26" height="29" viewBox="0 0 26 29" fill="none" xmlns="http://www.w3.org/2000/svg">
<g clip-path="url(#clip0_52_1438)">
<path d="M5.66618 19.6794C5.47067 18.1757 5.25427 16.8461 5.14038 15.5089C5.09482 14.9713 4.97334 14.759 4.41527 14.6423C3.36936 14.4223 2.33104 14.1219 1.33069 13.7431C0.647338 13.4849 -0.12523 12.9894 0.0664881 12.1725C0.20126 11.5986 0.78211 10.9443 1.33069 10.6975C2.49619 10.1733 3.76988 9.8902 5.07964 9.48463C5.1195 7.83939 5.68896 6.32616 7.07845 5.23571C8.66344 3.99221 10.4326 3.77603 12.2624 4.54891C14.1113 5.32945 15.1211 6.82355 15.3356 8.80932C15.4021 9.41768 15.5349 9.6549 16.1708 9.77925C17.2167 9.98586 18.2475 10.3226 19.244 10.7052C19.8989 10.9577 20.6145 11.4532 20.4323 12.228C20.3013 12.7828 19.766 13.4141 19.2459 13.6666C18.2911 14.1277 17.23 14.407 16.186 14.6193C15.5653 14.7456 15.3907 14.9522 15.347 15.5854C15.2559 16.892 15.0281 18.191 14.8554 19.4919C14.7586 19.5091 14.6637 19.5244 14.5668 19.5416C14.8136 19.6449 15.0566 19.7636 15.309 19.8516C18.7467 21.0434 20.7854 24.2038 20.5063 27.852C20.4532 28.5522 20.0811 28.6842 19.5022 28.6804C17.6989 28.6708 15.8975 28.6804 14.0942 28.6804C9.82514 28.6823 5.55419 28.6823 1.28513 28.6842C0.0835719 28.6842 0.00384746 28.6 5.10556e-05 27.3757C-0.0113382 23.6758 1.88307 21.0051 5.37196 19.798C5.54849 19.7349 5.72123 19.6583 5.66618 19.6794ZM16.6682 27.3393C16.6682 25.7802 16.6701 24.3473 16.6682 22.9163C16.6663 21.7742 16.3151 21.4241 15.0376 21.3361C15.0376 22.3539 15.0091 23.3697 15.0471 24.3836C15.0756 25.1642 14.77 25.4626 13.9917 25.453C11.4975 25.4243 9.00132 25.4224 6.50709 25.4511C5.72503 25.4607 5.42701 25.1565 5.45548 24.3779C5.49345 23.3448 5.46497 22.3099 5.46497 21.2749C5.35867 21.2118 5.25238 21.1467 5.14608 21.0836C4.70949 21.5025 3.94072 21.889 3.89896 22.3462C3.7452 23.9781 3.83821 25.6309 3.83821 27.3374C8.14523 27.3393 12.3573 27.3393 16.6682 27.3393ZM10.051 11.2676C10.9375 11.2217 11.6019 11.216 12.2624 11.149C14.1891 10.9558 14.1872 10.9462 14.0657 9.01211C13.9651 7.39174 12.792 5.94163 11.2583 5.53606C9.67898 5.11901 7.99718 5.76371 7.07845 7.09521C6.41977 8.04983 6.41408 9.11732 6.40458 10.2116C6.40079 10.776 6.58491 11.017 7.15058 11.0457C8.19269 11.1012 9.23101 11.2026 10.051 11.2676ZM6.46912 15.0287C6.35523 16.7773 6.26412 18.4722 7.94972 19.578C9.39995 20.5288 11.3627 20.4963 12.6857 19.5091C14.2442 18.3479 14.1379 16.695 14.0316 15.0287C11.4956 15.0287 9.03929 15.0287 6.46912 15.0287ZM1.3212 11.9582C1.33259 12.1036 1.34398 12.249 1.35537 12.3944C1.81663 12.58 2.26271 12.8268 2.73916 12.9396C7.77509 14.1372 12.8148 14.1564 17.845 12.8995C18.3044 12.7847 18.7258 12.5111 19.1643 12.3102C19.1624 12.1859 19.1605 12.0596 19.1586 11.9353C17.9532 11.5852 16.7479 11.237 15.3622 10.8353C15.5197 12.0214 14.844 12.1055 14.1511 12.2165C11.5715 12.6259 8.99563 12.6297 6.41218 12.2299C5.66998 12.1151 5.03218 11.9716 5.07205 10.8333C3.72622 11.237 2.52276 11.5986 1.3212 11.9582ZM6.73487 20.4121C6.73487 21.7455 6.71779 22.8092 6.76145 23.8709C6.76524 23.9819 7.13919 24.1655 7.3423 24.1694C9.27087 24.1923 11.2013 24.1942 13.1299 24.1655C13.3463 24.1617 13.7392 23.9321 13.7449 23.7925C13.7981 22.7613 13.7734 21.7264 13.7734 20.3949C11.3608 21.9292 9.13799 21.889 6.73487 20.4121ZM19.1662 27.3412C19.2877 25.8988 18.9004 24.6763 18.0102 23.3027C18.0102 24.8313 18.0102 26.0709 18.0102 27.3412C18.4259 27.3412 18.7581 27.3412 19.1662 27.3412ZM2.481 27.3451C2.481 26.0059 2.481 24.793 2.481 23.5782C2.36521 23.5553 2.24942 23.5342 2.13363 23.5113C1.79575 24.7433 1.45787 25.9772 1.08392 27.3451C1.7407 27.3451 2.09946 27.3451 2.481 27.3451Z" fill="white"/>
</g>
<g clip-path="url(#clip1_52_1438)">
<path d="M24.8106 4.72917V5.12184C24.8101 6.04225 24.5114 6.93783 23.9591 7.67501C23.4067 8.41219 22.6304 8.95148 21.7458 9.21245C20.8612 9.47342 19.9158 9.44208 19.0505 9.12311C18.1852 8.80414 17.4464 8.21463 16.9444 7.4425C16.4423 6.67036 16.2038 5.75698 16.2645 4.83857C16.3252 3.92016 16.6818 3.04593 17.2812 2.34626C17.8805 1.64659 18.6904 1.15898 19.5902 0.956139C20.49 0.753298 21.4314 0.8461 22.2739 1.22071" stroke="white" stroke-linecap="round" stroke-linejoin="round"/>
<path d="M24.8105 1.70728L20.5328 5.97975L19.2495 4.69929" stroke="white" stroke-linecap="round" stroke-linejoin="round"/>
</g>
<defs>
<clipPath id="clip0_52_1438">
<rect width="20.5328" height="24.5849" fill="white" transform="translate(0 4.09744)"/>
</clipPath>
<clipPath id="clip1_52_1438">
<rect width="10.2664" height="10.2437" fill="white" transform="translate(15.3997)"/>
</clipPath>
</defs>
</svg>
