<svg width="25" height="26" viewBox="0 0 25 26" fill="none" xmlns="http://www.w3.org/2000/svg">
<path d="M21.875 10.8333C21.875 18.4167 12.5 24.9167 12.5 24.9167C12.5 24.9167 3.125 18.4167 3.125 10.8333C3.125 8.24748 4.11272 5.76753 5.87087 3.93905C7.62903 2.11057 10.0136 1.08334 12.5 1.08334C14.9864 1.08334 17.371 2.11057 19.1291 3.93905C20.8873 5.76753 21.875 8.24748 21.875 10.8333Z" stroke="white" stroke-width="2" stroke-linecap="round" stroke-linejoin="round"/>
<path d="M12.5 14.0833C14.2259 14.0833 15.625 12.6283 15.625 10.8333C15.625 9.03842 14.2259 7.58334 12.5 7.58334C10.7741 7.58334 9.375 9.03842 9.375 10.8333C9.375 12.6283 10.7741 14.0833 12.5 14.0833Z" stroke="white" stroke-width="2" stroke-linecap="round" stroke-linejoin="round"/>
</svg>
