<svg width="30" height="31" viewBox="0 0 30 31" fill="none" xmlns="http://www.w3.org/2000/svg">
<g clip-path="url(#clip0_128_546)">
<path d="M5.66618 21.6794C5.47067 20.1757 5.25427 18.8461 5.14038 17.5089C5.09482 16.9713 4.97334 16.759 4.41527 16.6423C3.36936 16.4223 2.33104 16.1219 1.33069 15.7431C0.647338 15.4849 -0.12523 14.9894 0.0664881 14.1725C0.20126 13.5986 0.78211 12.9443 1.33069 12.6975C2.49619 12.1733 3.76988 11.8902 5.07964 11.4846C5.1195 9.83939 5.68896 8.32616 7.07845 7.23571C8.66344 5.99221 10.4326 5.77603 12.2624 6.54891C14.1113 7.32945 15.1211 8.82355 15.3356 10.8093C15.4021 11.4177 15.5349 11.6549 16.1708 11.7792C17.2167 11.9859 18.2475 12.3226 19.244 12.7052C19.8989 12.9577 20.6145 13.4532 20.4323 14.228C20.3013 14.7828 19.766 15.4141 19.2459 15.6666C18.2911 16.1277 17.23 16.407 16.186 16.6193C15.5653 16.7456 15.3907 16.9522 15.347 17.5854C15.2559 18.892 15.0281 20.191 14.8554 21.4919C14.7586 21.5091 14.6637 21.5244 14.5668 21.5416C14.8136 21.6449 15.0566 21.7636 15.309 21.8516C18.7467 23.0434 20.7854 26.2038 20.5063 29.852C20.4532 30.5522 20.0811 30.6842 19.5022 30.6804C17.6989 30.6708 15.8975 30.6804 14.0942 30.6804C9.82514 30.6823 5.55419 30.6823 1.28513 30.6842C0.0835719 30.6842 0.00384746 30.6 5.10556e-05 29.3757C-0.0113382 25.6758 1.88307 23.0051 5.37196 21.798C5.54849 21.7349 5.72123 21.6583 5.66618 21.6794ZM16.6682 29.3393C16.6682 27.7802 16.6701 26.3473 16.6682 24.9163C16.6663 23.7742 16.3151 23.4241 15.0376 23.3361C15.0376 24.3539 15.0091 25.3697 15.0471 26.3836C15.0756 27.1642 14.77 27.4626 13.9917 27.453C11.4975 27.4243 9.00132 27.4224 6.50709 27.4511C5.72503 27.4607 5.42701 27.1565 5.45548 26.3779C5.49345 25.3448 5.46497 24.3099 5.46497 23.2749C5.35867 23.2118 5.25238 23.1467 5.14608 23.0836C4.70949 23.5025 3.94072 23.889 3.89896 24.3462C3.7452 25.9781 3.83821 27.6309 3.83821 29.3374C8.14523 29.3393 12.3573 29.3393 16.6682 29.3393ZM10.051 13.2676C10.9375 13.2217 11.6019 13.216 12.2624 13.149C14.1891 12.9558 14.1872 12.9462 14.0657 11.0121C13.9651 9.39174 12.792 7.94163 11.2583 7.53606C9.67898 7.11901 7.99718 7.76371 7.07845 9.09521C6.41977 10.0498 6.41408 11.1173 6.40458 12.2116C6.40079 12.776 6.58491 13.017 7.15058 13.0457C8.19269 13.1012 9.23101 13.2026 10.051 13.2676ZM6.46912 17.0287C6.35523 18.7773 6.26412 20.4722 7.94972 21.578C9.39995 22.5288 11.3627 22.4963 12.6857 21.5091C14.2442 20.3479 14.1379 18.695 14.0316 17.0287C11.4956 17.0287 9.03929 17.0287 6.46912 17.0287ZM1.3212 13.9582C1.33259 14.1036 1.34398 14.249 1.35537 14.3944C1.81663 14.58 2.26271 14.8268 2.73916 14.9396C7.77509 16.1372 12.8148 16.1564 17.845 14.8995C18.3044 14.7847 18.7258 14.5111 19.1643 14.3102C19.1624 14.1859 19.1605 14.0596 19.1586 13.9353C17.9532 13.5852 16.7479 13.237 15.3622 12.8353C15.5197 14.0214 14.844 14.1055 14.1511 14.2165C11.5715 14.6259 8.99563 14.6297 6.41218 14.2299C5.66998 14.1151 5.03218 13.9716 5.07205 12.8333C3.72622 13.237 2.52276 13.5986 1.3212 13.9582ZM6.73487 22.4121C6.73487 23.7455 6.71779 24.8092 6.76145 25.8709C6.76524 25.9819 7.13919 26.1655 7.3423 26.1694C9.27087 26.1923 11.2013 26.1942 13.1299 26.1655C13.3463 26.1617 13.7392 25.9321 13.7449 25.7925C13.7981 24.7613 13.7734 23.7264 13.7734 22.3949C11.3608 23.9292 9.13799 23.889 6.73487 22.4121ZM19.1662 29.3412C19.2877 27.8988 18.9004 26.6763 18.0102 25.3027C18.0102 26.8313 18.0102 28.0709 18.0102 29.3412C18.4259 29.3412 18.7581 29.3412 19.1662 29.3412ZM2.481 29.3451C2.481 28.0059 2.481 26.793 2.481 25.5782C2.36521 25.5553 2.24942 25.5342 2.13363 25.5113C1.79575 26.7433 1.45787 27.9772 1.08392 29.3451C1.7407 29.3451 2.09946 29.3451 2.481 29.3451Z" fill="white"/>
</g>
<path d="M26.75 3.25L20.25 9.75" stroke="white" stroke-width="2" stroke-linecap="round" stroke-linejoin="round"/>
<path d="M20.25 3.25L26.75 9.75" stroke="white" stroke-width="2" stroke-linecap="round" stroke-linejoin="round"/>
<defs>
<clipPath id="clip0_128_546">
<rect width="20.5328" height="24.5849" fill="white" transform="translate(0 6.09744)"/>
</clipPath>
</defs>
</svg>
