<svg width="35" height="35" viewBox="0 0 35 35" fill="none" xmlns="http://www.w3.org/2000/svg">
<path d="M18.9583 9.11458C18.9583 9.50136 18.8047 9.87229 18.5312 10.1458C18.2577 10.4193 17.8868 10.5729 17.5 10.5729C17.1132 10.5729 16.7423 10.4193 16.4688 10.1458C16.1953 9.87229 16.0417 9.50136 16.0417 9.11458C16.0417 8.72781 16.1953 8.35688 16.4688 8.08339C16.7423 7.8099 17.1132 7.65625 17.5 7.65625C17.8868 7.65625 18.2577 7.8099 18.5312 8.08339C18.8047 8.35688 18.9583 8.72781 18.9583 9.11458ZM19.005 3.39063C18.5681 3.07157 18.041 2.89964 17.5 2.89964C16.959 2.89964 16.4319 3.07157 15.995 3.39063L5.17271 11.2875C3.74646 12.3273 4.48292 14.5833 6.24604 14.5833H6.5625V23.0417C5.90398 23.3777 5.35116 23.8893 4.96513 24.5198C4.57909 25.1503 4.37486 25.8753 4.375 26.6146V28.8021C4.375 29.4044 4.865 29.8958 5.46875 29.8958H29.5312C29.8213 29.8958 30.0995 29.7806 30.3046 29.5755C30.5098 29.3704 30.625 29.0922 30.625 28.8021V26.6146C30.6251 25.8753 30.4209 25.1503 30.0349 24.5198C29.6488 23.8893 29.096 23.3777 28.4375 23.0417V14.5833H28.754C30.5185 14.5833 31.2521 12.3273 29.8273 11.2875L19.005 3.38917V3.39063ZM17.2842 5.15667C17.3466 5.11104 17.4219 5.08645 17.4993 5.08645C17.5766 5.08645 17.6519 5.11104 17.7144 5.15667L27.6354 12.3958H7.36458L17.2856 5.15667H17.2842ZM26.25 14.5833V22.6042H23.3333V14.5833H26.25ZM21.1458 14.5833V22.6042H18.5938V14.5833H21.1458ZM16.4062 14.5833V22.6042H13.8542V14.5833H16.4062ZM8.38542 24.7917H26.6146C27.6208 24.7917 28.4375 25.6083 28.4375 26.6146V27.7083H6.5625V26.6146C6.5625 25.6083 7.37917 24.7917 8.38542 24.7917ZM8.75 22.6042V14.5833H11.6667V22.6042H8.75Z" fill="white"/>
</svg>
