<svg width="25" height="28" viewBox="0 0 25 28" fill="none" xmlns="http://www.w3.org/2000/svg">
<g clip-path="url(#clip0_10_521)">
<path d="M6.89893 17.7464C6.66087 16.0338 6.3974 14.5196 6.25873 12.9966C6.20326 12.3843 6.05535 12.1425 5.37586 12.0096C4.1024 11.759 2.83819 11.4169 1.6202 10.9855C0.788174 10.6914 -0.152476 10.1271 0.0809533 9.1967C0.245047 8.54306 0.952267 7.7979 1.6202 7.51683C3.03926 6.91984 4.59006 6.59737 6.18477 6.13546C6.23331 4.26168 6.92666 2.53823 8.61844 1.29631C10.5483 -0.119926 12.7023 -0.366133 14.9303 0.51411C17.1813 1.40307 18.4109 3.10473 18.6721 5.36634C18.753 6.0592 18.9147 6.32938 19.689 6.471C20.9624 6.70631 22.2174 7.08979 23.4308 7.52555C24.2281 7.81315 25.0994 8.37747 24.8776 9.25989C24.7181 9.89175 24.0663 10.6108 23.4331 10.8984C22.2706 11.4235 20.9786 11.7416 19.7075 11.9834C18.9517 12.1272 18.7391 12.3625 18.6859 13.0837C18.575 14.5719 18.2976 16.0513 18.0873 17.5329C17.9695 17.5525 17.8539 17.5699 17.736 17.5895C18.0365 17.7072 18.3323 17.8423 18.6397 17.9425C22.8252 19.2999 25.3074 22.8993 24.9677 27.0543C24.903 27.8518 24.45 28.0021 23.7451 27.9977C21.5495 27.9868 19.3562 27.9977 17.1605 27.9977C11.9627 27.9999 6.76257 27.9999 1.56473 28.0021C0.101754 28.0021 0.00468452 27.9062 6.21633e-05 26.5118C-0.0138049 22.2979 2.29275 19.2563 6.54069 17.8815C6.75563 17.8096 6.96595 17.7224 6.89893 17.7464ZM20.2945 26.4704C20.2945 24.6946 20.2968 23.0627 20.2945 21.433C20.2922 20.1322 19.8646 19.7335 18.3092 19.6332C18.3092 20.7924 18.2745 21.9493 18.3208 23.1041C18.3554 23.9931 17.9833 24.333 17.0357 24.3221C13.9989 24.2894 10.9597 24.2872 7.92278 24.3199C6.97057 24.3308 6.60772 23.9843 6.64238 23.0976C6.68861 21.921 6.65394 20.7423 6.65394 19.5635C6.52451 19.4916 6.39509 19.4175 6.26566 19.3456C5.73409 19.8228 4.79807 20.2629 4.74722 20.7837C4.56001 22.6422 4.67326 24.5247 4.67326 26.4682C9.91732 26.4704 15.0458 26.4704 20.2945 26.4704ZM12.2377 8.16612C13.3171 8.11383 14.126 8.10729 14.9303 8.03104C17.2761 7.81098 17.2738 7.80008 17.1259 5.5973C17.0034 3.75184 15.5751 2.10029 13.7077 1.63838C11.7848 1.1634 9.73705 1.89766 8.61844 3.41412C7.81646 4.50135 7.80953 5.71713 7.79797 6.96341C7.79335 7.60617 8.01753 7.8807 8.70627 7.91338C9.9751 7.97657 11.2393 8.09204 12.2377 8.16612ZM7.87655 12.4497C7.73788 14.4411 7.62695 16.3716 9.67927 17.6309C11.445 18.7138 13.8348 18.6767 15.4457 17.5525C17.3431 16.2299 17.2137 14.3474 17.0843 12.4497C13.9965 12.4497 11.0059 12.4497 7.87655 12.4497ZM1.60864 8.95268C1.62251 9.11827 1.63638 9.28386 1.65024 9.44945C2.21186 9.66079 2.75498 9.94186 3.33509 10.0704C9.46664 11.4344 15.6028 11.4561 21.7274 10.0247C22.2867 9.89393 22.7998 9.58236 23.3337 9.35358C23.3314 9.21196 23.3291 9.06815 23.3268 8.92653C21.8592 8.52781 20.3916 8.13126 18.7044 7.67371C18.8962 9.02458 18.0735 9.12045 17.2299 9.24682C14.089 9.71308 10.9527 9.71744 7.80722 9.26207C6.90355 9.13134 6.12699 8.96793 6.17553 7.67153C4.5369 8.13126 3.07162 8.54306 1.60864 8.95268ZM8.20012 18.5809C8.20012 20.0995 8.17932 21.3109 8.23247 22.5202C8.2371 22.6466 8.6924 22.8557 8.93969 22.8601C11.2879 22.8862 13.6383 22.8884 15.9865 22.8557C16.2499 22.8514 16.7284 22.5899 16.7353 22.4309C16.8 21.2565 16.77 20.0777 16.77 18.5613C13.8325 20.3087 11.1261 20.2629 8.20012 18.5809ZM23.336 26.4726C23.4839 24.8297 23.0124 23.4375 21.9285 21.8731C21.9285 23.6139 21.9285 25.0258 21.9285 26.4726C22.4347 26.4726 22.8391 26.4726 23.336 26.4726ZM3.02077 26.4769C3.02077 24.9517 3.02077 23.5704 3.02077 22.1868C2.87979 22.1607 2.73881 22.1367 2.59782 22.1106C2.18644 23.5137 1.77505 24.9191 1.31974 26.4769C2.11941 26.4769 2.55622 26.4769 3.02077 26.4769Z" fill="black"/>
</g>
<defs>
<clipPath id="clip0_10_521">
<rect width="25" height="28" fill="white"/>
</clipPath>
</defs>
</svg>
